<svg xmlns="http://www.w3.org/2000/svg" viewBox="0 0 1180 610" width="100%" height="100%">
  <defs>
    <!-- Fonts -->
    <style>
      @import url('https://fonts.googleapis.com/css2?family=JetBrains+Mono:wght@400;700&amp;family=Plus+Jakarta+Sans:wght@400;600;800&amp;display=swap');
      
      .title { font-family: 'Plus Jakarta Sans', system-ui, sans-serif; font-weight: 800; font-size: 32px; fill: #0F172A; }
      .subtitle { font-family: 'JetBrains+Mono', monospace; font-weight: 700; font-size: 20px; fill: #2563EB; }
      .label { font-family: 'JetBrains+Mono', monospace; font-weight: 700; font-size: 14px; fill: #64748B; }
      .value { font-family: 'Plus Jakarta Sans', system-ui, sans-serif; font-weight: 600; font-size: 15px; fill: #1E293B; }
      .pill-text { font-family: 'Plus Jakarta Sans', system-ui, sans-serif; font-weight: 600; font-size: 12px; fill: #334155; }
      .terminal-top-text { font-family: 'JetBrains+Mono', monospace; font-size: 12px; fill: #94A3B8; }
      
      /* Smooth Floating Animation */
      @keyframes float {
        0% { transform: translateY(0px); }
        50% { transform: translateY(-10px); }
        100% { transform: translateY(0px); }
      }
      .floating-art { animation: float 6s ease-in-out infinite; }
    </style>

    <!-- Theme Gradients -->
    <linearGradient id="bgGrad" x1="0%" y1="0%" x2="100%" y2="100%">
      <stop offset="0%" stop-color="#FFFFFF" />
      <stop offset="100%" stop-color="#F1F5F9" />
    </linearGradient>

    <linearGradient id="accentGrad" x1="0%" y1="0%" x2="100%" y2="0%">
      <stop offset="0%" stop-color="#2563EB">
        <animate attributeName="stop-color" values="#2563EB;#06B6D4;#10B981;#2563EB" dur="8s" repeatCount="indefinite" />
      </stop>
      <stop offset="100%" stop-color="#06B6D4">
        <animate attributeName="stop-color" values="#06B6D4;#10B981;#2563EB;#06B6D4" dur="8s" repeatCount="indefinite" />
      </stop>
    </linearGradient>

    <linearGradient id="asciiGrad" x1="0%" y1="0%" x2="0%" y2="100%">
      <stop offset="0%" stop-color="#2563EB" />
      <stop offset="50%" stop-color="#06B6D4" />
      <stop offset="100%" stop-color="#10B981" />
    </linearGradient>

    <linearGradient id="panelBorder" x1="0%" y1="0%" x2="100%" y2="100%">
      <stop offset="0%" stop-color="#0F172A" stop-opacity="0.1" />
      <stop offset="100%" stop-color="#0F172A" stop-opacity="0.03" />
    </linearGradient>

    <!-- Glow Filters -->
    <filter id="glow" x="-20%" y="-20%" width="140%" height="140%">
      <feGaussianBlur stdDeviation="8" result="blur" />
      <feComposite in="SourceGraphic" in2="blur" operator="over" />
    </filter>
    <filter id="softGlow" x="-40%" y="-40%" width="180%" height="180%">
      <feGaussianBlur stdDeviation="40" result="blur" />
    </filter>

    <!-- Pattern Grid -->
    <pattern id="grid" width="40" height="40" patternUnits="userSpaceOnUse">
      <path d="M 40 0 L 0 0 0 40" fill="none" stroke="#0F172A" stroke-opacity="0.02" stroke-width="1"/>
    </pattern>
  </defs>

  <!-- Background Layer -->
  <rect width="1180" height="610" rx="24" fill="url(#bgGrad)" stroke="url(#panelBorder)" stroke-width="2"/>
  <rect width="1180" height="610" rx="24" fill="url(#grid)"/>

  <!-- Ambient Decorative Background Glows -->
  <circle cx="200" cy="150" r="180" fill="#2563EB" fill-opacity="0.06" filter="url(#softGlow)">
    <animate attributeName="cx" values="200;250;200" dur="10s" repeatCount="indefinite"/>
  </circle>
  <circle cx="950" cy="450" r="220" fill="#06B6D4" fill-opacity="0.05" filter="url(#softGlow)">
    <animate attributeName="cy" values="450;380;450" dur="12s" repeatCount="indefinite"/>
  </circle>

  <!-- Moving Ambient Scanline -->
  <line x1="0" y1="0" x2="1180" y2="0" stroke="#0F172A" stroke-opacity="0.01" stroke-width="4">
    <animate attributeName="y1" values="0;610;0" dur="8s" repeatCount="indefinite" />
    <animate attributeName="y2" values="0;610;0" dur="8s" repeatCount="indefinite" />
  </line>

  <!-- Animated Floating Dust Particles -->
  <g fill="#0F172A" fill-opacity="0.1">
    <circle cx="120" cy="400" r="2"><animate attributeName="cy" values="400;370;400" dur="5s" repeatCount="indefinite"/></circle>
    <circle cx="450" cy="120" r="1.5"><animate attributeName="cy" values="120;150;120" dur="7s" repeatCount="indefinite"/></circle>
    <circle cx="850" cy="80" r="2"><animate attributeName="cx" values="850;880;850" dur="6s" repeatCount="indefinite"/></circle>
    <circle cx="1050" cy="520" r="2.5"><animate attributeName="cy" values="520;490;520" dur="4s" repeatCount="indefinite"/></circle>
  </g>

  <!-- ================= LEFT SIDE: DIGITAL PROFILE MESH ART ================= -->
  <g class="floating-art">
    <!-- Outer Interactive Ring -->
    <circle cx="240" cy="270" r="150" fill="none" stroke="url(#accentGrad)" stroke-width="2" stroke-dasharray="8 6" opacity="0.5">
      <animateTransform attributeName="transform" type="rotate" from="0 240 270" to="360 240 270" dur="30s" repeatCount="indefinite" />
    </circle>
    <circle cx="240" cy="270" r="138" fill="#F8FAFC" fill-opacity="0.6" stroke="url(#panelBorder)" stroke-width="1.5" />
    
    <!-- Cybernetic Lined Half-tone Facial Silhouette Profile Projection -->
    <g stroke="url(#asciiGrad)" stroke-linecap="round" opacity="0.75">
      <!-- SMIL Line-by-Line Reveal Matrix Effect -->
      <line x1="160" y1="180" x2="320" y2="180" stroke-width="2.5" stroke-dasharray="160"><animate attributeName="stroke-dashoffset" values="160;0" dur="1.5s" fill="freeze"/></line>
      <line x1="150" y1="195" x2="330" y2="195" stroke-width="3.0" stroke-dasharray="180"><animate attributeName="stroke-dashoffset" values="180;0" dur="1.7s" fill="freeze"/></line>
      <line x1="142" y1="210" x2="338" y2="210" stroke-width="2.0" stroke-dasharray="196"><animate attributeName="stroke-dashoffset" values="196;0" dur="1.9s" fill="freeze"/></line>
      <line x1="138" y1="225" x2="342" y2="225" stroke-width="3.5" stroke-dasharray="204"><animate attributeName="stroke-dashoffset" values="204;0" dur="2.1s" fill="freeze"/></line>
      <line x1="140" y1="240" x2="330" y2="240" stroke-width="2.5" stroke-dasharray="190"><animate attributeName="stroke-dashoffset" values="190;0" dur="2.3s" fill="freeze"/></line>
      <line x1="145" y1="255" x2="315" y2="255" stroke-width="4.0" stroke-dasharray="170"><animate attributeName="stroke-dashoffset" values="170;0" dur="2.5s" fill="freeze"/></line>
      <line x1="152" y1="270" x2="325" y2="270" stroke-width="2.0" stroke-dasharray="173"><animate attributeName="stroke-dashoffset" values="173;0" dur="2.7s" fill="freeze"/></line>
      <line x1="158" y1="285" x2="340" y2="285" stroke-width="3.0" stroke-dasharray="182"><animate attributeName="stroke-dashoffset" values="182;0" dur="2.9s" fill="freeze"/></line>
      <line x1="162" y1="300" x2="335" y2="300" stroke-width="2.5" stroke-dasharray="173"><animate attributeName="stroke-dashoffset" values="173;0" dur="3.1s" fill="freeze"/></line>
      <line x1="170" y1="315" x2="320" y2="315" stroke-width="3.5" stroke-dasharray="150"><animate attributeName="stroke-dashoffset" values="150;0" dur="3.3s" fill="freeze"/></line>
      <line x1="185" y1="330" x2="305" y2="330" stroke-width="2.0" stroke-dasharray="120"><animate attributeName="stroke-dashoffset" values="120;0" dur="3.5s" fill="freeze"/></line>
      <line x1="198" y1="345" x2="282" y2="345" stroke-width="4.0" stroke-dasharray="84"><animate attributeName="stroke-dashoffset" values="84;0" dur="3.7s" fill="freeze"/></line>
      <line x1="210" y1="360" x2="270" y2="360" stroke-width="2.5" stroke-dasharray="60"><animate attributeName="stroke-dashoffset" values="60;0" dur="3.9s" fill="freeze"/></line>
    </g>

    <!-- Label Descriptor Box -->
    <rect x="160" y="440" width="160" height="32" rx="16" fill="#F8FAFC" stroke="url(#accentGrad)" stroke-width="1.5" box-shadow="0 4px 12px rgba(0,0,0,0.05)"/>
    <text x="240" y="461" font-family="'JetBrains+Mono', monospace" font-size="12" fill="#2563EB" font-weight="bold" text-anchor="middle">MAHITHA_CORE_v1.0</text>
  </g>

  <!-- ================= RIGHT SIDE: HIGH-END TERMINAL PANEL ================= -->
  <g transform="translate(460, 45)">
    <!-- Terminal Glass Wrapper Window -->
    <rect width="675" height="520" rx="16" fill="#F8FAFC" fill-opacity="0.85" stroke="url(#panelBorder)" stroke-width="1.5" />
    
    <!-- Top Bar Controls -->
    <circle cx="25" cy="24" r="6" fill="#EF4444" />
    <circle cx="45" cy="24" r="6" fill="#F59E0B" />
    <circle cx="65" cy="24" r="6" fill="#10B981" />
    <text x="337" y="28" text-anchor="middle" class="terminal-top-text">mahithakatragadda / README.md</text>
    <path d="M 635 20 L 645 20 M 635 24 L 645 24 M 635 28 L 645 28" stroke="#94A3B8" stroke-width="2" stroke-linecap="round"/>
    <line x1="0" y1="48" x2="675" y2="48" stroke="url(#panelBorder)" stroke-width="1" />

    <!-- Terminal Main Body Section -->
    <g transform="translate(35, 90)">
      <!-- Greetings Header -->
      <text x="0" y="0" class="title">Hi 👋 I'm Mahitha Katragadda</text>
      
      <!-- Premium Multi-phrase SMIL Character-by-Character Typing Component -->
      <g transform="translate(0, 35)">
        <text x="0" y="0" class="subtitle">
          <animate attributeName="visibility" from="hidden" to="visible" begin="0s" />
          <animate attributeName="text" values=";B;;B.T;;B.Te;;B.Tech;;B.Tech C;;B.Tech CSE;;B.Tech CSE (;;B.Tech CSE (AI;;B.Tech CSE (AI &amp;;B.Tech CSE (AI &amp; M;;B.Tech CSE (AI &amp; ML) S;;B.Tech CSE (AI &amp; ML) Stud;;B.Tech CSE (AI &amp; ML) Student" dur="3s" fill="freeze" />
        </text>
        <!-- Typing Blinking Cursor -->
        <rect x="330" y="-18" width="8" height="22" fill="#2563EB">
          <animate attributeName="opacity" values="1;0;1" dur="0.8s" repeatCount="indefinite" />
          <animate attributeName="x" values="0;330" dur="3s" fill="freeze" />
        </rect>
      </g>

      <!-- Sequential Meta Info Fields Row Stack -->
      <g transform="translate(0, 85)" opacity="0">
        <animate attributeName="opacity" to="1" begin="1.5s" dur="0.6s" fill="freeze"/>
        <text x="0" y="0" class="label">Origin:</text>
        <text x="140" y="0" class="value">Visakhapatnam, Andhra Pradesh, India</text>
      </g>
      
      <g transform="translate(0, 115)" opacity="0">
        <animate attributeName="opacity" to="1" begin="1.8s" dur="0.6s" fill="freeze"/>
        <text x="0" y="0" class="label">Education:</text>
        <text x="140" y="0" class="value">Anil Neerukonda Institute of Technology &amp; Sciences</text>
      </g>

      <g transform="translate(0, 145)" opacity="0">
        <animate attributeName="opacity" to="1" begin="2.1s" dur="0.6s" fill="freeze"/>
        <text x="0" y="0" class="label">Current Focus:</text>
        <text x="140" y="0" class="value" fill="url(#accentGrad)">Building Intelligent Software &amp; AI Agents</text>
      </g>

      <!-- ================= TECH PILLS MATRIX (SKILLS) ================= -->
      <g transform="translate(0, 195)" opacity="0">
        <animate attributeName="opacity" to="1" begin="2.5s" dur="0.8s" fill="freeze"/>
        <text x="0" y="0" class="label" fill="#94A3B8">SKILLS &amp; TECHNOLOGIES</text>
        
        <!-- Row 1 Pills -->
        <g transform="translate(0, 20)">
          <!-- Python -->
          <g transform="translate(0, 0)">
            <rect width="78" height="28" rx="8" fill="#E2E8F0" stroke="url(#panelBorder)" stroke-width="1"/>
            <circle cx="14" cy="14" r="4" fill="#2563EB" />
            <text x="26" y="18" class="pill-text">Python</text>
          </g>
          <!-- Machine Learning -->
          <g transform="translate(88, 0)">
            <rect width="136" height="28" rx="8" fill="#E2E8F0" stroke="url(#panelBorder)" stroke-width="1"/>
            <circle cx="14" cy="14" r="4" fill="#7C3AED" />
            <text x="26" y="18" class="pill-text">Machine Learning</text>
          </g>
          <!-- Flask -->
          <g transform="translate(234, 0)">
            <rect width="68" height="28" rx="8" fill="#E2E8F0" stroke="url(#panelBorder)" stroke-width="1"/>
            <circle cx="14" cy="14" r="4" fill="#059669" />
            <text x="26" y="18" class="pill-text">Flask</text>
          </g>
          <!-- OpenCV -->
          <g transform="translate(312, 0)">
            <rect width="84" height="28" rx="8" fill="#E2E8F0" stroke="url(#panelBorder)" stroke-width="1"/>
            <circle cx="14" cy="14" r="4" fill="#EA580C" />
            <text x="26" y="18" class="pill-text">OpenCV</text>
          </g>
          <!-- Java -->
          <g transform="translate(406, 0)">
            <rect width="64" height="28" rx="8" fill="#E2E8F0" stroke="url(#panelBorder)" stroke-width="1"/>
            <circle cx="14" cy="14" r="4" fill="#DB2777" />
            <text x="26" y="18" class="pill-text">Java</text>
          </g>
        </g>

        <!-- Row 2 Pills -->
        <g transform="translate(0, 60)">
          <!-- LLMs -->
          <g transform="translate(0, 0)">
            <rect width="70" height="28" rx="8" fill="#E2E8F0" stroke="url(#panelBorder)" stroke-width="1"/>
            <circle cx="14" cy="14" r="4" fill="#D97706" />
            <text x="26" y="18" class="pill-text">LLMs</text>
          </g>
          <!-- RAG -->
          <g transform="translate(80, 0)">
            <rect width="65" height="28" rx="8" fill="#E2E8F0" stroke="url(#panelBorder)" stroke-width="1"/>
            <circle cx="14" cy="14" r="4" fill="#0891B2" />
            <text x="26" y="18" class="pill-text">RAG</text>
          </g>
          <!-- AI Agents -->
          <g transform="translate(155, 0)">
            <rect width="94" height="28" rx="8" fill="#E2E8F0" stroke="url(#panelBorder)" stroke-width="1"/>
            <circle cx="14" cy="14" r="4" fill="#E11D48" />
            <text x="26" y="18" class="pill-text">AI Agents</text>
          </g>
          <!-- Git & GitHub -->
          <g transform="translate(259, 0)">
            <rect width="106" height="28" rx="8" fill="#E2E8F0" stroke="url(#panelBorder)" stroke-width="1"/>
            <circle cx="14" cy="14" r="4" fill="#475569" />
            <text x="26" y="18" class="pill-text">Git &amp; GitHub</text>
          </g>
          <!-- Data Science -->
          <g transform="translate(375, 0)">
            <rect width="112" height="28" rx="8" fill="#E2E8F0" stroke="url(#panelBorder)" stroke-width="1"/>
            <circle cx="14" cy="14" r="4" fill="#16A34A" />
            <text x="26" y="18" class="pill-text">Data Science</text>
          </g>
        </g>
      </g>

      <!-- ================= MINIMAL PLUG SOCIAL INTERFACES ================= -->
      <g transform="translate(0, 325)" opacity="0">
        <animate attributeName="opacity" to="1" begin="3.2s" dur="0.8s" fill="freeze"/>
        <line x1="0" y1="0" x2="605" y2="0" stroke="url(#panelBorder)" stroke-width="1" />
        
        <!-- LinkedIn Link Block -->
        <g transform="translate(0, 20)">
          <circle cx="16" cy="16" r="16" fill="#E2E8F0" stroke="url(#panelBorder)" stroke-width="1"/>
          <path d="M12 11h2.5v10H12zM13.25 7a1.5 1.5 0 100 3 1.5 1.5 0 000-3zM16.5 11H19v1.5h.1c.3-.6 1.2-1.3 2.4-1.3 2.5 0 3 1.6 3 3.8V21h-2.5v-4.2c0-1-.1-2.3-1.4-2.3-1.4 0-1.6 1.1-1.6 2.2V21H16.5z" fill="#475569" transform="scale(0.8) translate(4, 4)"/>
          <text x="44" y="21" class="value" font-size="13" fill="#475569">LinkedIn</text>
        </g>

        <!-- LeetCode Link Block -->
        <g transform="translate(150, 20)">
          <circle cx="16" cy="16" r="16" fill="#E2E8F0" stroke="url(#panelBorder)" stroke-width="1"/>
          <path d="M16 4a12 12 0 1012 12A12 12 0 0016 4zm5.5 13.5a1 1 0 01-1.4 0l-3.3-3.3a2.5 2.5 0 00-3.6 0l-1 1a1 1 0 01-1.4-1.4l1-1a4.5 4.5 0 016.4 0l3.3 3.3a1 1 0 010 1.4z" fill="#475569" transform="scale(0.8) translate(4, 4)"/>
          <text x="44" y="21" class="value" font-size="13" fill="#475569">LeetCode</text>
        </g>

        <!-- GeeksforGeeks Link Block -->
        <g transform="translate(300, 20)">
          <circle cx="16" cy="16" r="16" fill="#E2E8F0" stroke="url(#panelBorder)" stroke-width="1"/>
          <path d="M12 6h8v2h-6v3h5v2h-5v3h6v2h-8V6zm10 0h2v12h-2V6z" fill="#475569" transform="scale(0.8) translate(4, 4)"/>
          <text x="44" y="21" class="value" font-size="13" fill="#475569">GeeksforGeeks</text>
        </g>

        <!-- Live Status Flag -->
        <g transform="translate(485, 20)">
          <rect width="120" height="28" rx="14" fill="#10B981" fill-opacity="0.1" stroke="#10B981" stroke-width="1" stroke-opacity="0.4"/>
          <circle cx="16" cy="14" r="4" fill="#10B981">
            <animate attributeName="opacity" values="1;0.4;1" dur="2s" repeatCount="indefinite"/>
          </circle>
          <text x="28" y="18" font-family="'JetBrains+Mono', monospace" font-weight="bold" font-size="11" fill="#047857">READY TO BUILD</text>
        </g>
      </g>
    </g>
  </g>
</svg>
